<mxfile host="app.diagrams.net" modified="2023-03-28T02:05:05.380Z" agent="Mozilla/5.0 (Macintosh; Intel Mac OS X 10_15_7) AppleWebKit/537.36 (KHTML, like Gecko) Chrome/111.0.0.0 Safari/537.36" etag="TuNT7UhCIeFLY8uGBUBU" version="21.1.1" type="github">
  <diagram name="第 1 页" id="HWMYgTCL1P1M9cWFOQtw">
    <mxGraphModel dx="1887" dy="1826" grid="1" gridSize="10" guides="1" tooltips="1" connect="1" arrows="1" fold="1" page="1" pageScale="1" pageWidth="827" pageHeight="1169" math="0" shadow="0">
      <root>
        <mxCell id="0" />
        <mxCell id="1" parent="0" />
        <mxCell id="WsJvQ-uqO-10ONgDjVaj-4" value="" style="edgeStyle=orthogonalEdgeStyle;rounded=0;orthogonalLoop=1;jettySize=auto;html=1;" edge="1" parent="1" source="WsJvQ-uqO-10ONgDjVaj-1" target="WsJvQ-uqO-10ONgDjVaj-3">
          <mxGeometry relative="1" as="geometry" />
        </mxCell>
        <mxCell id="WsJvQ-uqO-10ONgDjVaj-1" value="开始" style="rounded=1;whiteSpace=wrap;html=1;" vertex="1" parent="1">
          <mxGeometry x="337" y="-120" width="120" height="60" as="geometry" />
        </mxCell>
        <mxCell id="WsJvQ-uqO-10ONgDjVaj-2" value="结束" style="rounded=1;whiteSpace=wrap;html=1;" vertex="1" parent="1">
          <mxGeometry x="337" y="390" width="120" height="60" as="geometry" />
        </mxCell>
        <mxCell id="WsJvQ-uqO-10ONgDjVaj-6" value="" style="edgeStyle=orthogonalEdgeStyle;rounded=0;orthogonalLoop=1;jettySize=auto;html=1;" edge="1" parent="1" source="WsJvQ-uqO-10ONgDjVaj-3" target="WsJvQ-uqO-10ONgDjVaj-5">
          <mxGeometry relative="1" as="geometry" />
        </mxCell>
        <mxCell id="WsJvQ-uqO-10ONgDjVaj-3" value="键盘输入四位数&lt;br&gt;（键入）&lt;br&gt;year" style="whiteSpace=wrap;html=1;rounded=1;" vertex="1" parent="1">
          <mxGeometry x="337" y="-10" width="120" height="60" as="geometry" />
        </mxCell>
        <mxCell id="WsJvQ-uqO-10ONgDjVaj-8" value="" style="edgeStyle=orthogonalEdgeStyle;rounded=0;orthogonalLoop=1;jettySize=auto;html=1;" edge="1" parent="1" source="WsJvQ-uqO-10ONgDjVaj-5" target="WsJvQ-uqO-10ONgDjVaj-7">
          <mxGeometry relative="1" as="geometry" />
        </mxCell>
        <mxCell id="WsJvQ-uqO-10ONgDjVaj-13" value="是" style="edgeLabel;html=1;align=center;verticalAlign=middle;resizable=0;points=[];" vertex="1" connectable="0" parent="WsJvQ-uqO-10ONgDjVaj-8">
          <mxGeometry x="0.1065" y="1" relative="1" as="geometry">
            <mxPoint as="offset" />
          </mxGeometry>
        </mxCell>
        <mxCell id="WsJvQ-uqO-10ONgDjVaj-10" value="" style="edgeStyle=orthogonalEdgeStyle;rounded=0;orthogonalLoop=1;jettySize=auto;html=1;" edge="1" parent="1" source="WsJvQ-uqO-10ONgDjVaj-5" target="WsJvQ-uqO-10ONgDjVaj-9">
          <mxGeometry relative="1" as="geometry" />
        </mxCell>
        <mxCell id="WsJvQ-uqO-10ONgDjVaj-14" value="否" style="edgeLabel;html=1;align=center;verticalAlign=middle;resizable=0;points=[];" vertex="1" connectable="0" parent="WsJvQ-uqO-10ONgDjVaj-10">
          <mxGeometry x="-0.1931" y="-2" relative="1" as="geometry">
            <mxPoint as="offset" />
          </mxGeometry>
        </mxCell>
        <mxCell id="WsJvQ-uqO-10ONgDjVaj-5" value="year是否是闰年&lt;br&gt;1.year%4==0 and year%100!=0&lt;br&gt;2.year%400==0" style="rhombus;whiteSpace=wrap;html=1;rounded=1;" vertex="1" parent="1">
          <mxGeometry x="320" y="80" width="154" height="150" as="geometry" />
        </mxCell>
        <mxCell id="WsJvQ-uqO-10ONgDjVaj-12" style="edgeStyle=orthogonalEdgeStyle;rounded=0;orthogonalLoop=1;jettySize=auto;html=1;exitX=1;exitY=0.5;exitDx=0;exitDy=0;entryX=1;entryY=0.5;entryDx=0;entryDy=0;" edge="1" parent="1" source="WsJvQ-uqO-10ONgDjVaj-7" target="WsJvQ-uqO-10ONgDjVaj-2">
          <mxGeometry relative="1" as="geometry" />
        </mxCell>
        <mxCell id="WsJvQ-uqO-10ONgDjVaj-7" value="输出“是闰年”" style="whiteSpace=wrap;html=1;rounded=1;" vertex="1" parent="1">
          <mxGeometry x="523" y="125" width="120" height="60" as="geometry" />
        </mxCell>
        <mxCell id="WsJvQ-uqO-10ONgDjVaj-11" style="edgeStyle=orthogonalEdgeStyle;rounded=0;orthogonalLoop=1;jettySize=auto;html=1;exitX=0.5;exitY=1;exitDx=0;exitDy=0;entryX=0.5;entryY=0;entryDx=0;entryDy=0;" edge="1" parent="1" source="WsJvQ-uqO-10ONgDjVaj-9" target="WsJvQ-uqO-10ONgDjVaj-2">
          <mxGeometry relative="1" as="geometry" />
        </mxCell>
        <mxCell id="WsJvQ-uqO-10ONgDjVaj-9" value="输出“不是闰年”" style="whiteSpace=wrap;html=1;rounded=1;" vertex="1" parent="1">
          <mxGeometry x="337" y="260" width="120" height="60" as="geometry" />
        </mxCell>
        <mxCell id="WsJvQ-uqO-10ONgDjVaj-18" value="" style="edgeStyle=orthogonalEdgeStyle;rounded=0;orthogonalLoop=1;jettySize=auto;html=1;" edge="1" parent="1" source="WsJvQ-uqO-10ONgDjVaj-15" target="WsJvQ-uqO-10ONgDjVaj-17">
          <mxGeometry relative="1" as="geometry" />
        </mxCell>
        <mxCell id="WsJvQ-uqO-10ONgDjVaj-15" value="开始" style="rounded=1;whiteSpace=wrap;html=1;" vertex="1" parent="1">
          <mxGeometry x="337" y="470" width="120" height="60" as="geometry" />
        </mxCell>
        <mxCell id="WsJvQ-uqO-10ONgDjVaj-16" value="结束" style="rounded=1;whiteSpace=wrap;html=1;" vertex="1" parent="1">
          <mxGeometry x="360" y="990" width="120" height="60" as="geometry" />
        </mxCell>
        <mxCell id="WsJvQ-uqO-10ONgDjVaj-20" value="" style="edgeStyle=orthogonalEdgeStyle;rounded=0;orthogonalLoop=1;jettySize=auto;html=1;" edge="1" parent="1" source="WsJvQ-uqO-10ONgDjVaj-17" target="WsJvQ-uqO-10ONgDjVaj-19">
          <mxGeometry relative="1" as="geometry">
            <Array as="points">
              <mxPoint x="397" y="650" />
              <mxPoint x="260" y="650" />
            </Array>
          </mxGeometry>
        </mxCell>
        <mxCell id="WsJvQ-uqO-10ONgDjVaj-23" style="edgeStyle=orthogonalEdgeStyle;rounded=0;orthogonalLoop=1;jettySize=auto;html=1;exitX=0.5;exitY=1;exitDx=0;exitDy=0;" edge="1" parent="1" source="WsJvQ-uqO-10ONgDjVaj-17" target="WsJvQ-uqO-10ONgDjVaj-22">
          <mxGeometry relative="1" as="geometry" />
        </mxCell>
        <mxCell id="WsJvQ-uqO-10ONgDjVaj-17" value="输入一个年份year" style="whiteSpace=wrap;html=1;rounded=1;" vertex="1" parent="1">
          <mxGeometry x="337" y="560" width="120" height="60" as="geometry" />
        </mxCell>
        <mxCell id="WsJvQ-uqO-10ONgDjVaj-25" value="" style="edgeStyle=orthogonalEdgeStyle;rounded=0;orthogonalLoop=1;jettySize=auto;html=1;" edge="1" parent="1" source="WsJvQ-uqO-10ONgDjVaj-19" target="WsJvQ-uqO-10ONgDjVaj-24">
          <mxGeometry relative="1" as="geometry" />
        </mxCell>
        <mxCell id="WsJvQ-uqO-10ONgDjVaj-26" value="是" style="edgeLabel;html=1;align=center;verticalAlign=middle;resizable=0;points=[];" vertex="1" connectable="0" parent="WsJvQ-uqO-10ONgDjVaj-25">
          <mxGeometry x="-0.377" y="1" relative="1" as="geometry">
            <mxPoint as="offset" />
          </mxGeometry>
        </mxCell>
        <mxCell id="WsJvQ-uqO-10ONgDjVaj-28" value="" style="edgeStyle=orthogonalEdgeStyle;rounded=0;orthogonalLoop=1;jettySize=auto;html=1;" edge="1" parent="1" source="WsJvQ-uqO-10ONgDjVaj-19" target="WsJvQ-uqO-10ONgDjVaj-27">
          <mxGeometry relative="1" as="geometry" />
        </mxCell>
        <mxCell id="WsJvQ-uqO-10ONgDjVaj-29" value="否" style="edgeLabel;html=1;align=center;verticalAlign=middle;resizable=0;points=[];" vertex="1" connectable="0" parent="WsJvQ-uqO-10ONgDjVaj-28">
          <mxGeometry x="-0.1874" y="-1" relative="1" as="geometry">
            <mxPoint as="offset" />
          </mxGeometry>
        </mxCell>
        <mxCell id="WsJvQ-uqO-10ONgDjVaj-19" value="year%4==0 and&lt;br&gt;year%100!=0" style="rhombus;whiteSpace=wrap;html=1;rounded=1;" vertex="1" parent="1">
          <mxGeometry x="170" y="680" width="184.5" height="120" as="geometry" />
        </mxCell>
        <mxCell id="WsJvQ-uqO-10ONgDjVaj-33" value="否" style="edgeStyle=orthogonalEdgeStyle;rounded=0;orthogonalLoop=1;jettySize=auto;html=1;" edge="1" parent="1" source="WsJvQ-uqO-10ONgDjVaj-22" target="WsJvQ-uqO-10ONgDjVaj-32">
          <mxGeometry relative="1" as="geometry" />
        </mxCell>
        <mxCell id="WsJvQ-uqO-10ONgDjVaj-35" value="" style="edgeStyle=orthogonalEdgeStyle;rounded=0;orthogonalLoop=1;jettySize=auto;html=1;" edge="1" parent="1" source="WsJvQ-uqO-10ONgDjVaj-22" target="WsJvQ-uqO-10ONgDjVaj-34">
          <mxGeometry relative="1" as="geometry" />
        </mxCell>
        <mxCell id="WsJvQ-uqO-10ONgDjVaj-36" value="是" style="edgeLabel;html=1;align=center;verticalAlign=middle;resizable=0;points=[];" vertex="1" connectable="0" parent="WsJvQ-uqO-10ONgDjVaj-35">
          <mxGeometry x="-0.4068" y="-2" relative="1" as="geometry">
            <mxPoint as="offset" />
          </mxGeometry>
        </mxCell>
        <mxCell id="WsJvQ-uqO-10ONgDjVaj-22" value="year%400==0" style="rhombus;whiteSpace=wrap;html=1;rounded=1;" vertex="1" parent="1">
          <mxGeometry x="467" y="680" width="184.5" height="120" as="geometry" />
        </mxCell>
        <mxCell id="WsJvQ-uqO-10ONgDjVaj-31" style="edgeStyle=orthogonalEdgeStyle;rounded=0;orthogonalLoop=1;jettySize=auto;html=1;exitX=0.5;exitY=1;exitDx=0;exitDy=0;" edge="1" parent="1" source="WsJvQ-uqO-10ONgDjVaj-24">
          <mxGeometry relative="1" as="geometry">
            <mxPoint x="360" y="1020" as="targetPoint" />
            <Array as="points">
              <mxPoint x="-10" y="1020" />
            </Array>
          </mxGeometry>
        </mxCell>
        <mxCell id="WsJvQ-uqO-10ONgDjVaj-24" value="是闰年" style="whiteSpace=wrap;html=1;rounded=1;" vertex="1" parent="1">
          <mxGeometry x="-30" y="710" width="120" height="60" as="geometry" />
        </mxCell>
        <mxCell id="WsJvQ-uqO-10ONgDjVaj-30" style="edgeStyle=orthogonalEdgeStyle;rounded=0;orthogonalLoop=1;jettySize=auto;html=1;exitX=0.5;exitY=1;exitDx=0;exitDy=0;entryX=0;entryY=0.5;entryDx=0;entryDy=0;" edge="1" parent="1" source="WsJvQ-uqO-10ONgDjVaj-27" target="WsJvQ-uqO-10ONgDjVaj-16">
          <mxGeometry relative="1" as="geometry" />
        </mxCell>
        <mxCell id="WsJvQ-uqO-10ONgDjVaj-27" value="不是闰年" style="whiteSpace=wrap;html=1;rounded=1;" vertex="1" parent="1">
          <mxGeometry x="202.25" y="840" width="120" height="60" as="geometry" />
        </mxCell>
        <mxCell id="WsJvQ-uqO-10ONgDjVaj-37" style="edgeStyle=orthogonalEdgeStyle;rounded=0;orthogonalLoop=1;jettySize=auto;html=1;exitX=0.5;exitY=1;exitDx=0;exitDy=0;entryX=1;entryY=0.5;entryDx=0;entryDy=0;" edge="1" parent="1" source="WsJvQ-uqO-10ONgDjVaj-32" target="WsJvQ-uqO-10ONgDjVaj-16">
          <mxGeometry relative="1" as="geometry" />
        </mxCell>
        <mxCell id="WsJvQ-uqO-10ONgDjVaj-32" value="不是闰年" style="whiteSpace=wrap;html=1;rounded=1;" vertex="1" parent="1">
          <mxGeometry x="499.25" y="850" width="120" height="60" as="geometry" />
        </mxCell>
        <mxCell id="WsJvQ-uqO-10ONgDjVaj-38" style="edgeStyle=orthogonalEdgeStyle;rounded=0;orthogonalLoop=1;jettySize=auto;html=1;exitX=0.5;exitY=1;exitDx=0;exitDy=0;" edge="1" parent="1" source="WsJvQ-uqO-10ONgDjVaj-34">
          <mxGeometry relative="1" as="geometry">
            <mxPoint x="480" y="1020" as="targetPoint" />
            <Array as="points">
              <mxPoint x="770" y="770" />
              <mxPoint x="770" y="1020" />
            </Array>
          </mxGeometry>
        </mxCell>
        <mxCell id="WsJvQ-uqO-10ONgDjVaj-34" value="是闰年" style="whiteSpace=wrap;html=1;rounded=1;" vertex="1" parent="1">
          <mxGeometry x="707" y="710" width="120" height="60" as="geometry" />
        </mxCell>
      </root>
    </mxGraphModel>
  </diagram>
</mxfile>
